<?xml version="1.0" encoding="UTF-8" standalone="no"?>
<svg
   xmlns:dc="http://purl.org/dc/elements/1.1/"
   xmlns:cc="http://creativecommons.org/ns#"
   xmlns:rdf="http://www.w3.org/1999/02/22-rdf-syntax-ns#"
   xmlns:svg="http://www.w3.org/2000/svg"
   xmlns="http://www.w3.org/2000/svg"
   viewBox="0 0 133.33333 66.666664"
   height="66.666664"
   width="133.33333"
   xml:space="preserve"
   id="svg2"
   version="1.1"><metadata
     id="metadata8"><rdf:RDF><cc:Work
         rdf:about=""><dc:format>image/svg+xml</dc:format><dc:type
           rdf:resource="http://purl.org/dc/dcmitype/StillImage" /></cc:Work></rdf:RDF></metadata><defs
     id="defs6"><clipPath
       id="clipPath18"
       clipPathUnits="userSpaceOnUse"><path
         id="path16"
         d="M 0,50 H 100 V 0 H 0 Z" /></clipPath></defs><g
     transform="matrix(1.3333333,0,0,-1.3333333,0,66.666667)"
     id="g10"><g
       id="g12"><g
         clip-path="url(#clipPath18)"
         id="g14"><g
           transform="translate(0,23.7888)"
           id="g20"><path
             id="path22"
             style="fill:#60abde;fill-opacity:1;fill-rule:nonzero;stroke:none"
             d="m 0,0 6.633,0.621 c 0.409,-2.226 1.221,-3.868 2.442,-4.918 1.226,-1.042 2.883,-1.561 4.966,-1.561 2.199,0 3.86,0.471 4.989,1.396 1.115,0.946 1.667,2.024 1.667,3.258 0,0.802 -0.237,1.5 -0.7,2.061 -0.471,0.552 -1.29,1.052 -2.455,1.448 -0.806,0.308 -2.629,0.798 -5.468,1.519 -3.663,0.902 -6.235,2.03 -7.698,3.355 -2.077,1.884 -3.119,4.18 -3.119,6.867 0,1.731 0.479,3.367 1.471,4.859 0.973,1.515 2.392,2.666 4.239,3.466 1.842,0.769 4.047,1.171 6.676,1.171 4.247,0 7.444,-0.94 9.601,-2.809 2.151,-1.903 3.272,-4.401 3.378,-7.534 l -6.867,-0.231 c -0.304,1.711 -0.912,2.972 -1.885,3.745 -0.953,0.767 -2.397,1.152 -4.308,1.152 -1.982,0 -3.54,-0.408 -4.655,-1.238 -0.73,-0.535 -1.09,-1.221 -1.09,-2.098 0,-0.817 0.335,-1.49 1.015,-2.065 0.856,-0.742 2.957,-1.498 6.28,-2.274 3.329,-0.792 5.783,-1.611 7.371,-2.459 1.592,-0.848 2.843,-2.004 3.743,-3.478 0.892,-1.438 1.357,-3.276 1.357,-5.435 0,-1.946 -0.546,-3.788 -1.624,-5.482 -1.079,-1.693 -2.609,-2.974 -4.58,-3.806 -1.978,-0.81 -4.437,-1.242 -7.383,-1.242 -4.289,0 -7.592,1.001 -9.887,3.007 C 1.817,-6.712 0.446,-3.807 0,0" /></g><g
           transform="translate(26.7149,37.3776)"
           id="g24"><path
             id="path26"
             style="fill:#60abde;fill-opacity:1;fill-rule:nonzero;stroke:none"
             d="M 0,0 H 6.887 L 12.77,-17.513 18.503,0 h 6.712 l -8.627,-23.717 -1.58,-4.328 c -0.571,-1.444 -1.11,-2.538 -1.625,-3.295 -0.515,-0.773 -1.109,-1.396 -1.778,-1.859 -0.683,-0.46 -1.508,-0.831 -2.469,-1.094 -0.984,-0.267 -2.088,-0.415 -3.322,-0.415 -1.244,0 -2.473,0.148 -3.682,0.415 l -0.538,5.124 c 1.009,-0.214 1.926,-0.32 2.74,-0.32 1.499,0 2.616,0.443 3.333,1.325 0.725,0.908 1.279,2.053 1.661,3.426 z" /></g><g
           transform="translate(74.5121,12.707)"
           id="g28"><path
             id="path30"
             style="fill:#60abde;fill-opacity:1;fill-rule:nonzero;stroke:none"
             d="m 0,0 h -6.485 v 12.558 c 0,2.646 -0.134,4.351 -0.421,5.139 -0.284,0.779 -0.725,1.387 -1.363,1.821 -0.627,0.429 -1.396,0.646 -2.274,0.646 -1.141,0 -2.152,-0.315 -3.063,-0.936 -0.911,-0.614 -1.525,-1.427 -1.859,-2.43 -0.329,-1.031 -0.502,-2.902 -0.502,-5.664 V 0 h -6.471 v 24.671 h 5.994 v -3.613 c 2.157,2.732 4.864,4.082 8.131,4.082 1.451,0 2.764,-0.266 3.962,-0.762 1.196,-0.534 2.107,-1.176 2.707,-1.989 0.61,-0.806 1.036,-1.717 1.279,-2.727 C -0.125,18.657 0,17.18 0,15.286 Z" /></g><g
           transform="translate(74.5488,25.3019)"
           id="g32"><path
             id="path34"
             style="fill:#60abde;fill-opacity:1;fill-rule:nonzero;stroke:none"
             d="m 0,0 c 0,2.188 0.54,4.264 1.605,6.304 1.065,2.021 2.579,3.57 4.538,4.647 1.959,1.071 4.147,1.592 6.558,1.592 3.737,0 6.788,-1.207 9.166,-3.63 2.386,-2.424 3.584,-5.487 3.584,-9.18 0,-3.732 -1.207,-6.812 -3.614,-9.271 -2.404,-2.445 -5.441,-3.689 -9.092,-3.689 -2.257,0 -4.409,0.521 -6.466,1.542 -2.051,1.022 -3.609,2.518 -4.674,4.5 C 0.54,-5.224 0,-2.826 0,0 m 6.639,-0.329 c 0,-2.463 0.576,-4.345 1.747,-5.621 1.167,-1.317 2.598,-1.973 4.309,-1.973 1.711,0 3.143,0.656 4.308,1.973 1.146,1.276 1.723,3.18 1.723,5.652 0,2.438 -0.577,4.301 -1.723,5.591 -1.165,1.29 -2.597,1.959 -4.308,1.959 C 10.984,7.252 9.553,6.583 8.386,5.293 7.215,4.003 6.639,2.119 6.639,-0.329" /></g></g></g></g></svg>
