<?xml version="1.0" standalone="no"?>
<!DOCTYPE svg PUBLIC "-//W3C//DTD SVG 20010904//EN"
 "http://www.w3.org/TR/2001/REC-SVG-20010904/DTD/svg10.dtd">
<svg version="1.0" xmlns="http://www.w3.org/2000/svg"
 width="408.000000pt" height="408.000000pt" viewBox="0 0 408.000000 408.000000"
 preserveAspectRatio="xMidYMid meet">
<metadata>
Created by potrace 1.11, written by Peter Selinger 2001-2013
</metadata>
<g transform="translate(0.000000,408.000000) scale(0.100000,-0.100000)"
fill="#000000" stroke="none">
<path d="M1890 4070 c-394 -30 -779 -177 -1095 -419 -84 -64 -266 -242 -338
-331 -180 -223 -321 -508 -392 -790 -78 -309 -78 -671 0 -980 67 -266 197
-537 364 -755 124 -163 352 -368 528 -478 339 -209 688 -309 1083 -309 196 0
331 17 506 62 431 111 803 352 1084 701 224 278 371 619 425 984 22 147 22
423 0 570 -68 459 -274 859 -606 1181 -413 400 -987 607 -1559 564z m-270
-1282 c135 -35 230 -122 271 -246 18 -53 21 -82 17 -170 -3 -93 -7 -115 -31
-164 -52 -105 -156 -185 -278 -212 l-50 -12 63 -49 c34 -28 86 -79 114 -114
46 -58 304 -460 304 -475 0 -3 -82 -6 -183 -6 l-183 0 -156 233 c-165 245
-222 318 -269 342 -35 19 -142 34 -191 27 l-38 -4 0 -299 0 -299 -155 0 -155
0 0 728 c0 401 3 732 7 736 4 4 199 6 433 3 332 -3 437 -7 480 -19z m1149
-450 l286 -467 5 467 5 467 143 3 142 3 0 -736 0 -736 -156 3 -156 3 -281 456
-282 455 -3 -458 -2 -458 -145 0 -145 0 0 735 0 736 151 -3 151 -3 287 -467z"/>
<path d="M1010 2371 l0 -181 143 0 c205 1 334 14 366 38 50 37 71 80 71 147 0
75 -25 120 -85 150 -36 18 -64 20 -267 23 l-228 4 0 -181z"/>
</g>
</svg>
